<?xml version="1.0" encoding="UTF-8" standalone="no"?>
<!DOCTYPE svg PUBLIC "-//W3C//DTD SVG 1.1//EN"
 "http://www.w3.org/Graphics/SVG/1.1/DTD/svg11.dtd">
<!-- Generated by graphviz version 2.43.0 (0)
 -->
<!-- Title: G Pages: 1 -->
<svg width="1106pt" height="424pt"
 viewBox="0.00 0.00 1106.00 424.00" xmlns="http://www.w3.org/2000/svg" xmlns:xlink="http://www.w3.org/1999/xlink">
<g id="graph0" class="graph" transform="scale(1 1) rotate(0) translate(4 420)">
<title>G</title>
<polygon fill="white" stroke="transparent" points="-4,4 -4,-420 1102,-420 1102,4 -4,4"/>
<!-- r1 -->
<g id="node1" class="node">
<title>r1</title>
<g id="a_node1"><a xlink:href="./r1" xlink:title="Main Office Router (R1)">
<image xlink:href="/home/kaiserace/Workspaces/clan-network-map/public/image.png" width="100px" height="77px" preserveAspectRatio="xMinYMin meet" x="421.5" y="-416"/>
<text text-anchor="middle" x="471.5" y="-373.8" font-family="Times,serif" font-size="14.00">Main Office Router (R1)</text>
</a>
</g>
</g>
<!-- r2 -->
<g id="node2" class="node">
<title>r2</title>
<g id="a_node2"><a xlink:href="./r2" xlink:title="Branch Office Router (R2)">
<image xlink:href="/home/kaiserace/Workspaces/clan-network-map/public/image.png" width="100px" height="77px" preserveAspectRatio="xMinYMin meet" x="181.5" y="-303"/>
<text text-anchor="middle" x="231.5" y="-260.8" font-family="Times,serif" font-size="14.00">Branch Office Router (R2)</text>
</a>
</g>
</g>
<!-- r1&#45;&gt;r2 -->
<g id="edge3" class="edge">
<title>r1&#45;&gt;r2</title>
<path fill="none" stroke="black" d="M390.25,-338.92C368.26,-328.75 344.32,-317.68 321.86,-307.29"/>
<polygon fill="black" stroke="black" points="323.21,-304.06 312.67,-303.04 320.28,-310.42 323.21,-304.06"/>
</g>
<!-- sw1 -->
<g id="node3" class="node">
<title>sw1</title>
<g id="a_node3"><a xlink:href="./sw1" xlink:title="Data Center Core Switch (SW1)">
<image xlink:href="/home/kaiserace/Workspaces/clan-network-map/public/image.png" width="100px" height="77px" preserveAspectRatio="xMinYMin meet" x="421.5" y="-303"/>
<text text-anchor="middle" x="471.5" y="-260.8" font-family="Times,serif" font-size="14.00">Data Center Core Switch (SW1)</text>
</a>
</g>
</g>
<!-- r1&#45;&gt;sw1 -->
<g id="edge1" class="edge">
<title>r1&#45;&gt;sw1</title>
<path fill="none" stroke="black" d="M471.5,-338.92C471.5,-330.69 471.5,-321.88 471.5,-313.31"/>
<polygon fill="black" stroke="black" points="475,-313.04 471.5,-303.04 468,-313.04 475,-313.04"/>
</g>
<!-- fw1 -->
<g id="node9" class="node">
<title>fw1</title>
<g id="a_node9"><a xlink:href="./fw1" xlink:title="Perimeter Firewall (FW1)">
<image xlink:href="/home/kaiserace/Workspaces/clan-network-map/public/image.png" width="100px" height="77px" preserveAspectRatio="xMinYMin meet" x="660.5" y="-303"/>
<text text-anchor="middle" x="710.5" y="-260.8" font-family="Times,serif" font-size="14.00">Perimeter Firewall (FW1)</text>
</a>
</g>
</g>
<!-- r1&#45;&gt;fw1 -->
<g id="edge2" class="edge">
<title>r1&#45;&gt;fw1</title>
<path fill="none" stroke="black" d="M552.41,-338.92C574.31,-328.75 598.15,-317.68 620.52,-307.29"/>
<polygon fill="black" stroke="black" points="622.07,-310.43 629.67,-303.04 619.12,-304.08 622.07,-310.43"/>
</g>
<!-- sw2 -->
<g id="node4" class="node">
<title>sw2</title>
<g id="a_node4"><a xlink:href="./sw2" xlink:title="Office Floor 1 Access Switch (SW2)">
<image xlink:href="/home/kaiserace/Workspaces/clan-network-map/public/image.png" width="100px" height="77px" preserveAspectRatio="xMinYMin meet" x="335.5" y="-190"/>
<text text-anchor="middle" x="385.5" y="-147.8" font-family="Times,serif" font-size="14.00">Office Floor 1 Access Switch (SW2)</text>
</a>
</g>
</g>
<!-- sw1&#45;&gt;sw2 -->
<g id="edge4" class="edge">
<title>sw1&#45;&gt;sw2</title>
<path fill="none" stroke="black" d="M442.38,-225.92C435.45,-216.97 427.98,-207.32 420.8,-198.06"/>
<polygon fill="black" stroke="black" points="423.48,-195.8 414.59,-190.04 417.94,-200.09 423.48,-195.8"/>
</g>
<!-- lb1 -->
<g id="node10" class="node">
<title>lb1</title>
<g id="a_node10"><a xlink:href="./lb1" xlink:title="Web Server Load Balancer (LB1)">
<image xlink:href="/home/kaiserace/Workspaces/clan-network-map/public/image.png" width="100px" height="77px" preserveAspectRatio="xMinYMin meet" x="660.5" y="-190"/>
<text text-anchor="middle" x="710.5" y="-147.8" font-family="Times,serif" font-size="14.00">Web Server Load Balancer (LB1)</text>
</a>
</g>
</g>
<!-- sw1&#45;&gt;lb1 -->
<g id="edge5" class="edge">
<title>sw1&#45;&gt;lb1</title>
<path fill="none" stroke="black" d="M552.41,-225.92C574.31,-215.75 598.15,-204.68 620.52,-194.29"/>
<polygon fill="black" stroke="black" points="622.07,-197.43 629.67,-190.04 619.12,-191.08 622.07,-197.43"/>
</g>
<!-- h2 -->
<g id="node6" class="node">
<title>h2</title>
<g id="a_node6"><a xlink:href="./h2" xlink:title="Conference Room Hub (H2)">
<image xlink:href="/home/kaiserace/Workspaces/clan-network-map/public/image.png" width="100px" height="77px" preserveAspectRatio="xMinYMin meet" x="56.5" y="-77"/>
<text text-anchor="middle" x="106.5" y="-34.8" font-family="Times,serif" font-size="14.00">Conference Room Hub (H2)</text>
</a>
</g>
</g>
<!-- sw2&#45;&gt;h2 -->
<g id="edge7" class="edge">
<title>sw2&#45;&gt;h2</title>
<path fill="none" stroke="black" d="M291.04,-112.92C265.02,-102.57 236.66,-91.28 210.15,-80.74"/>
<polygon fill="black" stroke="black" points="211.44,-77.49 200.86,-77.04 208.86,-83.99 211.44,-77.49"/>
</g>
<!-- ap1 -->
<g id="node7" class="node">
<title>ap1</title>
<g id="a_node7"><a xlink:href="./ap1" xlink:title="Office Wireless Access Point (AP1)">
<image xlink:href="/home/kaiserace/Workspaces/clan-network-map/public/image.png" width="100px" height="77px" preserveAspectRatio="xMinYMin meet" x="311.5" y="-77"/>
<text text-anchor="middle" x="361.5" y="-34.8" font-family="Times,serif" font-size="14.00">Office Wireless Access Point (AP1)</text>
</a>
</g>
</g>
<!-- sw2&#45;&gt;ap1 -->
<g id="edge6" class="edge">
<title>sw2&#45;&gt;ap1</title>
<path fill="none" stroke="black" d="M377.37,-112.92C375.58,-104.6 373.65,-95.68 371.78,-87.03"/>
<polygon fill="black" stroke="black" points="375.15,-86.08 369.62,-77.04 368.31,-87.55 375.15,-86.08"/>
</g>
<!-- ap2 -->
<g id="node8" class="node">
<title>ap2</title>
<g id="a_node8"><a xlink:href="./ap2" xlink:title="Warehouse Wireless Access Point (AP2)">
<image xlink:href="/home/kaiserace/Workspaces/clan-network-map/public/image.png" width="100px" height="77px" preserveAspectRatio="xMinYMin meet" x="609.5" y="-77"/>
<text text-anchor="middle" x="659.5" y="-34.8" font-family="Times,serif" font-size="14.00">Warehouse Wireless Access Point (AP2)</text>
</a>
</g>
</g>
<!-- sw2&#45;&gt;ap2 -->
<g id="edge8" class="edge">
<title>sw2&#45;&gt;ap2</title>
<path fill="none" stroke="black" d="M478.26,-112.92C503.71,-102.61 531.43,-91.38 557.36,-80.88"/>
<polygon fill="black" stroke="black" points="558.88,-84.04 566.83,-77.04 556.25,-77.55 558.88,-84.04"/>
</g>
<!-- h1 -->
<g id="node5" class="node">
<title>h1</title>
<g id="a_node5"><a xlink:href="./h1" xlink:title="Lab Testing Hub (H1)">
<image xlink:href="/home/kaiserace/Workspaces/clan-network-map/public/image.png" width="100px" height="77px" preserveAspectRatio="xMinYMin meet" x="912.5" y="-190"/>
<text text-anchor="middle" x="962.5" y="-147.8" font-family="Times,serif" font-size="14.00">Lab Testing Hub (H1)</text>
</a>
</g>
</g>
<!-- ips1 -->
<g id="node11" class="node">
<title>ips1</title>
<g id="a_node11"><a xlink:href="./ips1" xlink:title="Intrusion Prevention System (IPS1)">
<image xlink:href="/home/kaiserace/Workspaces/clan-network-map/public/image.png" width="100px" height="77px" preserveAspectRatio="xMinYMin meet" x="912.5" y="-77"/>
<text text-anchor="middle" x="962.5" y="-34.8" font-family="Times,serif" font-size="14.00">Intrusion Prevention System (IPS1)</text>
</a>
</g>
</g>
<!-- h1&#45;&gt;ips1 -->
<g id="edge9" class="edge">
<title>h1&#45;&gt;ips1</title>
<path fill="none" stroke="black" d="M962.5,-112.92C962.5,-104.69 962.5,-95.88 962.5,-87.31"/>
<polygon fill="black" stroke="black" points="966,-87.04 962.5,-77.04 959,-87.04 966,-87.04"/>
</g>
<!-- fw1&#45;&gt;lb1 -->
<g id="edge10" class="edge">
<title>fw1&#45;&gt;lb1</title>
<path fill="none" stroke="black" d="M710.5,-225.92C710.5,-217.69 710.5,-208.88 710.5,-200.31"/>
<polygon fill="black" stroke="black" points="714,-200.04 710.5,-190.04 707,-200.04 714,-200.04"/>
</g>
<!-- lb1&#45;&gt;ips1 -->
<g id="edge11" class="edge">
<title>lb1&#45;&gt;ips1</title>
<path fill="none" stroke="black" d="M795.82,-112.92C819.01,-102.7 844.26,-91.58 867.94,-81.15"/>
<polygon fill="black" stroke="black" points="869.53,-84.27 877.27,-77.04 866.71,-77.87 869.53,-84.27"/>
</g>
</g>
</svg>
