<svg xmlns="http://www.w3.org/2000/svg" xmlns:xlink="http://www.w3.org/1999/xlink" viewBox="0 0 129.167 82.125" fill="#fff" fill-rule="evenodd" stroke="#000" stroke-linecap="round" stroke-linejoin="round"><use xlink:href="#A" x="2.083" y="1.042"/><symbol id="A" overflow="visible"><path d="M20.698 27.052a1.89 1.89 0 0 1-1.679 1.694C8.271 29.896 0 40.479 0 53.365c0 13.652 9.467 24.719 21.146 24.719h80.621C114.598 78.083 125 66.39 125 51.958c0-13.827-9.554-25.146-21.642-26.042-.925-.071-1.675-.717-1.854-1.625C98.804 10.423 86.346 0 71.617 0c-9.573 0-18.1 4.333-23.637 11.229-.542.673-1.45.979-2.25.646-2.131-.896-4.381-1.327-6.9-1.327-9.515 0-17.325 7.263-18.135 16.521z" fill="#d0cfce" stroke="none" fill-rule="nonzero"/><path d="M20.698 27.052a1.89 1.89 0 0 1-1.673 1.694C8.271 29.896 0 40.479 0 53.364c0 13.652 9.467 24.719 21.146 24.719h80.621c12.831 0 23.233-11.694 23.233-26.125 0-13.829-9.556-25.146-21.65-26.042a2.01 2.01 0 0 1-1.846-1.625C98.804 10.425 86.346.004 71.617.004c-9.575 0-18.104 4.338-23.646 11.235-.537.671-1.458.979-2.229.625-2.133-.896-4.39-1.333-6.91-1.333-9.515 0-17.325 7.263-18.138 16.521z" fill="none" stroke-width="4.167" stroke-miterlimit="10"/></symbol></svg>