<svg xmlns="http://www.w3.org/2000/svg" xmlns:xlink="http://www.w3.org/1999/xlink" version="1.1" x="0px" y="0px" viewBox="0 0 100 100" style="enable-background:new 0 0 100 100;" xml:space="preserve"><path d="M91,61.4c-0.8-0.7-1.9-1-3-0.9c-1.7,0.2-3,1.3-3.5,2.8c-11.7,1.4-23.6-0.8-26.9-1.5v-0.4c0.5,0,1.2,0,2,0  c5.9,0,18.6-0.7,26.9-5.9c0.6,0.4,1.3,0.6,2.1,0.6c0.1,0,0.3,0,0.4,0c1.1-0.1,2.1-0.6,2.8-1.5c0.7-0.8,1-1.9,0.9-3  c-0.2-2.3-2.2-3.9-4.5-3.7c-2.3,0.2-3.9,2.2-3.7,4.5c0,0.1,0,0.1,0,0.2c-8.5,5.3-23.1,5.3-26.9,5.2v-0.8c3.8-0.4,17.9-2.5,23.7-11.3  c0.1,0,0.1,0,0.2,0c0.1,0,0.3,0,0.4,0c2.3-0.2,3.9-2.2,3.7-4.5c-0.2-2.3-2.2-3.9-4.5-3.7c-2.3,0.2-3.9,2.2-3.7,4.5  c0.1,0.8,0.3,1.4,0.8,2C73.3,51,61.4,53,57.6,53.5V53c2.5-0.6,10.4-3.2,14.1-11.9c0,0,0,0,0.1,0c2.3-0.2,3.9-2.2,3.7-4.5  c-0.1-1.1-0.6-2.1-1.5-2.8c-0.8-0.7-1.9-1-3-0.9c-1.1,0.1-2.1,0.6-2.8,1.5c-0.7,0.8-1,1.9-0.9,3c0.1,0.9,0.5,1.8,1.1,2.4  c-2.8,6.4-8.2,8.8-10.7,9.5v-2.1h-5.4l0-2.3c-19.4,0.6-25.5-4.8-25.1-4.3L7.3,56.3c1.9,2.4,12.6,13.9,42.1,13.9c1.1,0,1.6,0,2.8,0  l0-2.3h5.3v-2.5c3.2,0.6,10.3,1.9,18.5,1.9c2.8,0,5.8-0.1,8.8-0.5c0.7,1.1,2,1.9,3.4,1.9c0.1,0,0.3,0,0.4,0c2.3-0.2,3.9-2.2,3.7-4.5  C92.3,63.1,91.8,62.1,91,61.4z M88.4,50.2c0.1,0,0.1,0,0.2,0c0.9,0,1.7,0.7,1.8,1.7c0,0.5-0.1,1-0.4,1.3c-0.3,0.4-0.8,0.6-1.2,0.7  c-1,0.1-1.9-0.6-2-1.7C86.7,51.2,87.4,50.3,88.4,50.2z M81.3,39.9c0.1,0,0.1,0,0.2,0c0.9,0,1.7,0.7,1.8,1.7c0.1,1-0.6,1.9-1.7,2  c-1,0.1-1.9-0.6-2-1.7C79.6,40.9,80.3,40,81.3,39.9z M69.9,35.8c0.3-0.4,0.8-0.6,1.2-0.7c0.1,0,0.1,0,0.2,0c0.4,0,0.8,0.1,1.2,0.4  c0.4,0.3,0.6,0.8,0.7,1.2c0.1,1-0.6,1.9-1.7,2c-1,0.1-1.9-0.6-2-1.7C69.5,36.6,69.6,36.1,69.9,35.8z M55,65.4h-2.8V49.8H55V65.4z   M88.5,66.4c-1,0.1-1.9-0.6-2-1.7c-0.1-1,0.6-1.9,1.7-2c0.1,0,0.1,0,0.2,0c0.4,0,0.8,0.1,1.2,0.4c0.4,0.3,0.6,0.8,0.7,1.2  C90.2,65.4,89.5,66.3,88.5,66.4z"/></svg>
