<svg xmlns="http://www.w3.org/2000/svg" xmlns:xlink="http://www.w3.org/1999/xlink" viewBox="0 0 24 52" fill="#fff" fill-rule="evenodd" stroke="#000" stroke-linecap="round" stroke-linejoin="round"><style><![CDATA[.B{stroke:#fff}.C{stroke-linejoin:miter}.D{fill:#000}.E{stroke-width:.787}.F{stroke:none}.G{stroke-linecap:square}.H{fill:none}]]></style><use xlink:href="#A" x=".5" y=".5"/><symbol id="A" overflow="visible"><g class="B C D E"><path d="M0 50.368V8.657h12.592v41.711H0z"/><path d="M12.592 8.657H0L11.411 0h10.624l-9.444 8.657z"/><path d="M22.036 0v39.743l-9.444 10.624V8.657L22.036 0z"/></g><path d="M19.281 9.05V2.361z" class="D F"/><path d="M19.281 9.05V2.361" class="B C E G H"/><path d="M19.281 22.822v-6.689z" class="D F"/><path d="M19.281 22.822v-6.689" class="B C E G H"/><path d="M19.281 36.202v-6.69z" class="D F"/><path d="M19.281 36.202v-6.689" class="B C E G H"/><path d="M22.036 33.054l-9.444 10.624z" class="D F"/><path d="M22.036 33.054l-9.444 10.624" class="B C E G H"/><path d="M22.036 26.364l-9.444 10.231z" class="D F"/><path d="M22.036 26.364l-9.444 10.231" class="B C E G H"/><path d="M22.036 19.675l-9.444 9.837z" class="D F"/><path d="M22.036 19.675l-9.444 9.837" class="B C E G H"/><path d="M22.036 12.985l-9.444 9.837z" class="D F"/><path d="M22.036 12.985l-9.444 9.837" class="B C E G H"/><path d="M22.036 6.689l-9.444 9.05z" class="D F"/><path d="M22.036 6.689l-9.444 9.05" class="B C E G H"/><path d="M12.592 8.657L22.036 0z" class="D F"/><path d="M12.592 8.657L22.036 0" class="B C E G H"/><path d="M12.592 43.285H0z" class="D F"/><path d="M12.592 43.285H0" class="B C E G H"/><path d="M12.592 36.595H0z" class="D F"/><path d="M12.592 36.595H0" class="B C E G H"/><path d="M12.592 29.512H0z" class="D F"/><path d="M12.592 29.512H0" class="B C E G H"/><path d="M12.592 22.429H0z" class="D F"/><path d="M12.592 22.429H0" class="B C E G H"/><path d="M12.592 15.74H0z" class="D F"/><path d="M12.592 15.74H0" class="B C E G H"/><path d="M16.133 46.432v-6.689z" class="D F"/><path d="M16.133 46.432v-6.689" class="B C E G H"/><path d="M16.133 33.054v-7.083z" class="D F"/><path d="M16.133 33.054v-7.083" class="B C E G H"/><path d="M16.133 19.281v-6.689z" class="D F"/><path d="M16.133 19.281v-6.689" class="B C E G H"/></symbol></svg>