<svg xmlns="http://www.w3.org/2000/svg" xmlns:xlink="http://www.w3.org/1999/xlink" viewBox="0,0,256,256" width="48px" height="48px" fill-rule="nonzero"><g fill="#ffffff" fill-rule="nonzero" stroke="none" stroke-width="1" stroke-linecap="butt" stroke-linejoin="miter" stroke-miterlimit="10" stroke-dasharray="" stroke-dashoffset="0" font-family="none" font-weight="none" font-size="none" text-anchor="none" style="mix-blend-mode: normal"><g transform="scale(10.66667,10.66667)"><path d="M12,0c-6.62891,0 -12,5.37109 -12,12c0,6.62891 5.37109,12 12,12c6.62891,0 12,-5.37109 12,-12c0,-6.62891 -5.37109,-12 -12,-12zM12,2c5.52344,0 10,4.47656 10,10c0,5.52344 -4.47656,10 -10,10c-5.52344,0 -10,-4.47656 -10,-10c0,-5.52344 4.47656,-10 10,-10zM12,5.8125c-0.18359,0 -0.33594,-0.00391 -0.5,0.03125c-0.16406,0.03516 -0.31641,0.125 -0.4375,0.21875c-0.12109,0.09375 -0.21094,0.22266 -0.28125,0.375c-0.07031,0.15234 -0.09375,0.33203 -0.09375,0.5625c0,0.22656 0.02344,0.40625 0.09375,0.5625c0.07031,0.15625 0.16016,0.28125 0.28125,0.375c0.12109,0.09375 0.27344,0.14844 0.4375,0.1875c0.16406,0.03906 0.31641,0.0625 0.5,0.0625c0.17969,0 0.37109,-0.02344 0.53125,-0.0625c0.16016,-0.03906 0.28516,-0.09375 0.40625,-0.1875c0.12109,-0.09375 0.21094,-0.21875 0.28125,-0.375c0.07031,-0.15234 0.125,-0.33594 0.125,-0.5625c0,-0.23047 -0.05469,-0.41016 -0.125,-0.5625c-0.07031,-0.15234 -0.16016,-0.28125 -0.28125,-0.375c-0.12109,-0.09375 -0.24609,-0.18359 -0.40625,-0.21875c-0.16016,-0.03516 -0.35156,-0.03125 -0.53125,-0.03125zM10.78125,9.15625v8.96875h2.4375v-8.96875z"></path></g></g></svg>