<svg xmlns="http://www.w3.org/2000/svg" xmlns:xlink="http://www.w3.org/1999/xlink" viewBox="0 0 59 40" fill="#fff" fill-rule="evenodd" stroke="#000" stroke-linecap="round" stroke-linejoin="round"><use xlink:href="#A" x=".5" y=".5"/><symbol id="A" overflow="visible"><use xlink:href="#C" stroke="none" fill="#000"/><use xlink:href="#C" stroke="#fff" stroke-linejoin="miter" fill="none" stroke-width=".787"/><use xlink:href="#D" stroke="none" fill="#000"/><use xlink:href="#D" stroke="#fff" stroke-linejoin="miter" fill="none" stroke-width=".787"/><path d="M22.442 6.685l2.362 3.543-9.054 2.362 1.968-1.575L3.547 8.653 7.09 5.898 20.867 8.26l1.575-1.575zm12.596 8.66l-1.575-3.543 8.267-1.575-1.575 1.181 13.778 2.362-3.543 2.755-13.384-2.755-1.968 1.575zm-4.33-10.628l9.054-2.362v3.936L37.4 5.898l-4.33 3.543-4.33-.394 4.724-3.936-2.755-.394zm-3.937 14.171l-8.66 1.575-.394-3.936 2.362.394 4.724-3.936 4.33.787-5.117 4.33 2.755.787z" stroke="none"/></symbol><defs ><path id="C" d="M57.865 11.416c0 5.905-12.99 11.022-28.736 11.022C12.99 22.438 0 17.321 0 11.416v16.139c0 6.298 12.99 11.416 29.129 11.416 15.745 0 28.736-5.117 28.736-11.416z"/><path id="D" d="M29.129 22.437c15.745 0 28.736-5.117 28.736-11.022C57.865 5.117 44.875 0 29.129 0 12.99 0 0 5.117 0 11.416c0 5.905 12.99 11.022 29.129 11.022z"/></defs></svg>