<svg xmlns="http://www.w3.org/2000/svg" xmlns:xlink="http://www.w3.org/1999/xlink" viewBox="0 0 77 39" fill="#fff" fill-rule="evenodd" stroke="#000" stroke-linecap="round" stroke-linejoin="round"><use xlink:href="#A" x=".5" y=".5"/><symbol id="A" overflow="visible"><g fill="#000"><path d="M56.302 36.616V18.111H0v18.505h56.302z" stroke="none"/><g stroke="#fff" stroke-linejoin="miter" stroke-width=".787"><path d="M0 18.111L22.836 0h52.365L56.302 18.111H0z"/><path d="M56.302 37.01l18.899-20.473V0L56.302 18.111V37.01z"/></g></g><path d="M33.073 13.387l-1.181.787H17.717l-1.181 1.575-3.937-1.575 7.481-2.362-1.181 1.575h14.174zm11.024-6.693l-1.181.787H28.742L27.56 9.056l-3.937-1.969 7.481-1.969-1.181 1.575h14.174zm-8.662 4.331l1.181-.787h13.78l1.575-1.575 3.544 1.575-7.481 2.362 1.575-1.575H35.435zm7.087-6.693l1.181-1.181h14.174l1.181-1.181 3.937 1.575-7.481 1.969 1.181-1.181H42.522z" stroke="none"/></symbol></svg>